<svg height="512" viewBox="0 0 60 60" width="512" xmlns="http://www.w3.org/2000/svg"><g id="Page-1" fill="none" fill-rule="evenodd"><g id="053---Hydro-Car" fill="rgb(0,0,0)" fill-rule="nonzero" transform="translate(-1 -1)"><path id="Shape" d="m15.052 42.926-6.468-.9c-.64917374-.092014-1.30637943.1016684-1.80190059.5310305-.49552116.4293622-.78077563 1.0523085-.78209941 1.7079695v2.47c.00110271 1.2504679 1.01453208 2.2638973 2.265 2.265h6.47c1.2504679-.0011027 2.2638973-1.0145321 2.265-2.265v-1.567c-.0046446-1.1265732-.8331143-2.0800788-1.948-2.242zm-.052 3.809c0 .1463555-.1186445.265-.265.265h-6.47c-.14635546 0-.265-.1186445-.265-.265v-2.47c-.00000415-.145578.11742619-.2639013.263-.265.01398358-.0009588.02801642-.0009588.042 0l6.468.9c.1297821.0196612.2260227.1307407.227.262z"/><path id="Shape" d="m38.418 42.022-6.473.9c-1.1151911.1634904-1.9425528 1.1188911-1.945 2.246v1.567c.0011027 1.2504679 1.0145321 2.2638973 2.265 2.265h6.47c1.2504679-.0011027 2.2638973-1.0145321 2.265-2.265v-2.47c-.0002484-.6559577-.2847358-1.2796218-.7799356-1.7098051s-1.1525162-.6246701-1.8020644-.5331949zm.582 4.713c0 .1463555-.1186445.265-.265.265h-6.47c-.1463555 0-.265-.1186445-.265-.265v-1.567c.0007395-.1302894.0954089-.2410188.224-.262l6.476-.906c.0133149-.0009927.0266851-.0009927.04 0 .1451825.0016437.2620093.1198082.262.265z"/><path id="Shape" d="m14 29c.2163702 0 .4269038-.0701779.6-.2l4-3c.2858125-.2143593.4355548-.5649147.3928204-.9196153-.0427344-.3547005-.2714532-.6596588-.6000001-.8-.3285468-.1403412-.7070078-.0947441-.9928203.1196153l-4 3c-.3443443.2582582-.4847973.7078856-.3486833 1.1162278.136114.4083421.5182529.6837722.9486833.6837722z"/><path id="Shape" d="m14.2 32.6c.1591299.2121732.3960277.3524422.6585786.3899495.262551.0375073.5292482-.0308196.7414214-.1899495l8-6c.2858125-.2143594.4355547-.5649147.3928203-.9196152-.0427344-.3547006-.2714531-.6596589-.6-.8-.3285469-.1403412-.7070078-.0947442-.9928203.1196152l-8 6c-.2121732.1591299-.3524422.3960277-.3899495.6585786-.0375073.262551.0308196.5292482.1899495.7414214z"/><path id="Shape" d="m46.649 1.57c-.9638079-.75830378-2.3205135-.76160476-3.288-.008-3.6124971 2.86462984-6.8026231 6.2247658-9.476 9.981-1.8456977 2.5683012-3.249975 5.4265379-4.155 8.457h-12.87c-3.2339964-.0078753-6.0927318 2.1001426-7.041 5.192l-1.727 4.808h-3.592c-.92898141-.0036075-1.8208422.3643706-2.477 1.022-.7362839.7364566-1.10638165 1.7625346-1.00972898 2.7994244s.65001631 1.9768883 1.50972898 2.5645756c-.97317407.9383649-1.52294511 2.2321137-1.523 3.584v11.03c.00525139 1.2667854.80564913 2.3937454 2 2.816v4.184c0 1.6568542 1.34314575 3 3 3h3c1.6568542 0 3-1.3431458 3-3v-4h23v4c0 1.6568542 1.3431458 3 3 3h3c1.6568542 0 3-1.3431458 3-3v-4.184c1.1943509-.4222546 1.9947486-1.5492146 2-2.816v-10.049c3.4604956-.2068241 6.7610447-1.5283769 9.408-3.767 3.5448424-3.000547 5.5900257-7.4087362 5.592-12.053 0-12.005-12.882-22.413-14.351-23.561zm-34.929 24.24c.6832238-2.2662485 2.7730084-3.8152913 5.14-3.81h12.414c-.4201656 2.3139034-.3595752 4.6895239.178 6.979.5317135 2.1900798 1.5403842 4.2357623 2.954 5.991h-23.974l1.281-3.57c.005-.012.008-.025.013-.038zm-7.22 9.19c-.82842712 0-1.5-.6715729-1.5-1.5s.67157288-1.5 1.5-1.5h2.874l-1.066 2.97h-.308c-.1 0-.2.024-.3.03zm5.5 23c0 .5522847-.44771525 1-1 1h-3c-.55228475 0-1-.4477153-1-1v-4h5zm31 1h-3c-.5522847 0-1-.4477153-1-1v-4h5v4c0 .5522847-.4477153 1-1 1zm2-7h-39c-.55228475 0-1-.4477153-1-1v-11.03c.00442698-1.536207 1.17116484-2.8196186 2.7-2.97h28.65c2.2411219 1.9792685 4.9934624 3.2887353 7.943 3.779.5655205.0889541 1.1352936.148368 1.707.178v10.043c0 .5522847-.4477153 1-1 1zm11.113-16.34c-3.1846048 2.6879314-7.3907254 3.838214-11.5 3.145-2.6841048-.4444375-5.1801505-1.6625717-7.182-3.505l-.01-.009-.019-.02-.012-.012c-1.9676792-1.8043479-3.3561946-4.1516-3.99-6.745-2.954-12.345 11.531-24.078 13.191-25.375.1167309-.09117947.2608837-.14017029.409-.139.152974.0004701.3014416.05183566.422.146 1.386 1.086 13.578 10.928 13.578 21.985-.0027521 4.0572562-1.7900237 7.9079176-4.887 10.529z"/><path id="Shape" d="m43.259 34.857c-3.868227-.6207544-6.9993436-3.4776871-7.971-7.273-.0790216-.3517624-.3412733-.6337564-.6863858-.7380568s-.7196505-.0147579-.9802703.2343577c-.2606197.2491155-.3669683.6192325-.2783439.9686991 1.1650492 4.5765024 4.9335801 8.0261124 9.595 8.783.0535486.0087975.1077337.0131457.162.013.5231369.0024139.9597234-.3987868 1.0014311-.9202641.0417077-.5214772-.3255608-.9869701-.8424311-1.0677359z"/><path id="Shape" d="m27 47h-7c-.5522847 0-1 .4477153-1 1s.4477153 1 1 1h7c.5522847 0 1-.4477153 1-1s-.4477153-1-1-1z"/><path id="Shape" d="m27 43h-7c-.5522847 0-1 .4477153-1 1s.4477153 1 1 1h7c.5522847 0 1-.4477153 1-1s-.4477153-1-1-1z"/></g></g></svg>