<svg id="Capa_1" enable-background="new 0 0 512 512" height="512" viewBox="0 0 512 512" width="512" xmlns="http://www.w3.org/2000/svg"><g><g><path d="m228.858 129.19c27.653 0 50.15-22.498 50.15-50.15 0-27.653-22.497-50.15-50.15-50.15s-50.15 22.497-50.15 50.15 22.498 50.15 50.15 50.15zm0-85.27c19.365 0 35.12 15.755 35.12 35.12 0 19.366-15.755 35.12-35.12 35.12s-35.12-15.755-35.12-35.12 15.755-35.12 35.12-35.12z"/><path d="m274.833 251.138c0-7.555-2.942-14.658-8.284-20.001l-61.866-61.865c3.827-15.73-.779-32.648-12.36-44.228-18.245-18.244-47.935-18.245-66.182 0l-12.307 12.307c-30.597 30.598-56.142 65.625-75.926 104.107-1.897 3.691-.443 8.221 3.248 10.119 3.691 1.899 8.222.444 10.12-3.248 19.069-37.093 43.693-70.857 73.186-100.35l12.307-12.307c12.387-12.388 32.54-12.388 44.927 0 8.649 8.649 11.567 21.685 7.434 33.212-.981 2.737-.296 5.794 1.76 7.851l65.031 65.032c5.167 5.168 5.167 13.576 0 18.743-5.168 5.167-13.577 5.169-18.745 0l-24.386-24.386c-2.935-2.934-7.693-2.934-10.628 0-2.935 2.936-2.935 7.693 0 10.628l24.386 24.386c6.193 6.193 15.092 9.177 23.769 8.02 8.703-1.161 16.521-6.449 20.857-14.083 2.406-4.235 3.659-9.07 3.659-13.937z"/><path d="m180.909 225.498c2.935 2.934 7.693 2.935 10.628-.001 2.935-2.934 2.935-7.692 0-10.628l-16.743-16.742c-2.934-2.934-7.693-2.934-10.628 0l-28.311 28.311c-2.259 2.259-2.843 5.7-1.455 8.578l38.084 78.999h-32.615c-3.587 0-6.674 2.535-7.371 6.054l-27.929 140.952c-.837 4.226-4.294 7.056-8.595 7.059-4.301.002-7.758-2.837-8.594-7.059l-27.93-140.952c-.697-3.519-3.784-6.054-7.372-6.054h-32.616l18.726-38.845c1.802-3.739.233-8.23-3.506-10.033-3.739-1.801-8.231-.233-10.033 3.506l-23.921 49.623c-2.365 4.906 1.333 10.778 6.769 10.778h38.409l26.729 134.898c2.271 11.464 11.65 19.167 23.337 19.167 11.687 0 21.066-7.703 23.338-19.167l26.729-134.898h38.409c5.436 0 9.135-5.872 6.769-10.778l-40.964-84.972 19.225-19.226z"/><path d="m269.695 221.597c-.502 14.104 11.106 26.155 25.225 26.155h23.042l14.813 36.807c4.718 11.721 15.932 19.296 28.568 19.296h45.437c16.14 0 29.271-13.131 29.271-29.271v-57.235c0-13.918-11.324-25.242-25.242-25.242s-25.241 11.323-25.241 25.242v15.373h-13.049l-8.66-17.801c-5.216-10.723-16.293-17.652-28.217-17.652h-40.295c-13.899 0-25.166 10.686-25.652 24.328zm25.651-9.298h40.295c6.213 0 11.984 3.611 14.702 9.198l10.716 22.028c1.258 2.586 3.882 4.227 6.758 4.227h25.266c4.15 0 7.515-3.364 7.515-7.515v-22.888c0-5.63 4.581-10.212 10.212-10.212s10.212 4.581 10.212 10.212v57.235c0 7.853-6.389 14.241-14.241 14.241h-45.437c-6.469 0-12.21-3.878-14.625-9.878l-16.708-41.515c-1.145-2.845-3.904-4.709-6.971-4.709h-28.118c-6.063 0-10.947-5.514-10.122-11.545.699-5.127 5.462-8.879 10.546-8.879z"/><path d="m487.321 311.708h-206.827c-13.608 0-24.679 11.072-24.679 24.68s11.071 24.68 24.679 24.68h118.326c4.15 0 7.515-3.364 7.515-7.515s-3.365-7.515-7.515-7.515h-118.326c-5.321 0-9.65-4.329-9.65-9.65s4.329-9.65 9.65-9.65h206.826c5.321 0 9.65 4.329 9.65 9.65s-4.329 9.65-9.65 9.65h-58.44c-4.15 0-7.515 3.364-7.515 7.515s3.365 7.515 7.515 7.515h58.441c13.608 0 24.679-11.072 24.679-24.68s-11.071-24.68-24.679-24.68z"/><path d="m475.7 293.569c20.016 0 36.3-16.284 36.3-36.3 0-20.015-16.284-36.3-36.3-36.3s-36.3 16.284-36.3 36.3c.001 20.016 16.284 36.3 36.3 36.3zm0-57.57c11.728 0 21.27 9.541 21.27 21.27s-9.541 21.27-21.27 21.27-21.27-9.541-21.27-21.27c.001-11.728 9.542-21.27 21.27-21.27z"/></g></g></svg>