<svg id="Capa_1" enable-background="new 0 0 512 512" height="512" viewBox="0 0 512 512" width="512" xmlns="http://www.w3.org/2000/svg"><g><path d="m440.371 0h-368.742c-39.496 0-71.629 32.133-71.629 71.629v368.742c0 39.496 32.133 71.629 71.629 71.629h368.742c39.496 0 71.629-32.133 71.629-71.629v-368.742c0-39.496-32.133-71.629-71.629-71.629zm56.629 440.371c0 31.225-25.404 56.629-56.629 56.629h-368.742c-31.225 0-56.629-25.404-56.629-56.629v-368.742c0-31.225 25.404-56.629 56.629-56.629h368.742c31.225 0 56.629 25.404 56.629 56.629z"/><path d="m111.71 464.936h-40.081c-13.545 0-24.564-11.02-24.564-24.564v-368.743c0-13.545 11.02-24.565 24.564-24.565h304.611c4.142 0 7.5-3.358 7.5-7.5s-3.358-7.5-7.5-7.5h-304.611c-21.816 0-39.564 17.749-39.564 39.565v368.742c0 21.816 17.749 39.564 39.564 39.564h40.082c4.142 0 7.5-3.358 7.5-7.5s-3.358-7.499-7.501-7.499z"/><path d="m440.371 32.064h-32.068c-4.142 0-7.5 3.358-7.5 7.5s3.358 7.5 7.5 7.5h32.068c13.545 0 24.564 11.02 24.564 24.565v368.742c0 13.545-11.02 24.564-24.564 24.564h-296.596c-4.142 0-7.5 3.358-7.5 7.5s3.358 7.5 7.5 7.5h296.596c21.816 0 39.564-17.749 39.564-39.564v-368.742c.001-21.816-17.748-39.565-39.564-39.565z"/><path d="m132.378 302.637c3.622-2.01 4.929-6.575 2.919-10.197-2.009-3.622-6.575-4.929-10.197-2.92-22.775 12.636-36.924 36.651-36.924 62.673 0 39.496 32.133 71.629 71.629 71.629 20.541 0 40.123-8.839 53.724-24.252 2.741-3.106 2.445-7.845-.661-10.586s-7.845-2.445-10.586.661c-10.755 12.188-26.237 19.177-42.477 19.177-31.226 0-56.629-25.404-56.629-56.629.001-20.574 11.19-39.563 29.202-49.556z"/><path d="m218.864 360.028 20.147 53.726c2.258 6.022 8.097 10.068 14.528 10.068h10.477c4.142 0 7.5-3.358 7.5-7.5s-3.358-7.5-7.5-7.5h-10.477c-.214 0-.408-.135-.483-.335l-20.147-53.726c-2.258-6.022-8.097-10.068-14.528-10.068h-50.558c-.285 0-.516-.231-.516-.516v-48.613h48.613c4.142 0 7.5-3.358 7.5-7.5s-3.358-7.5-7.5-7.5h-48.613v-16.548c0-4.142-3.358-7.5-7.5-7.5s-7.5 3.358-7.5 7.5v80.161c0 8.556 6.96 15.516 15.516 15.516h50.558c.213.001.408.135.483.335z"/><path d="m183.339 223.936c0-12.976-10.557-23.532-23.532-23.532s-23.532 10.557-23.532 23.532 10.557 23.532 23.532 23.532 23.532-10.557 23.532-23.532zm-32.065 0c0-4.705 3.828-8.532 8.532-8.532s8.532 3.828 8.532 8.532-3.828 8.532-8.532 8.532-8.532-3.828-8.532-8.532z"/><path d="m386.611 109.386c8.799 0 17.285 2.591 24.542 7.493 3.433 2.32 8.095 1.416 10.414-2.016s1.416-8.094-2.016-10.413c-9.746-6.584-21.136-10.064-32.939-10.064-32.479 0-58.904 26.424-58.904 58.904s26.424 58.904 58.904 58.904c12.827 0 24.307-4.186 33.2-12.106 1.743-1.552 3.402-3.264 4.93-5.085 2.662-3.174 2.247-7.904-.926-10.566-3.174-2.662-7.905-2.246-10.566.927-1.063 1.267-2.211 2.453-3.414 3.523-6.189 5.512-14.003 8.308-23.224 8.308-24.208 0-43.904-19.695-43.904-43.904s19.694-43.905 43.903-43.905z"/><path d="m276.7 205.66c1.391 3.915 5.104 6.533 9.253 6.533h.067c4.177-.029 7.887-2.705 9.231-6.659.105-.311.19-.628.255-.95l20.11-101.045c.808-4.063-1.83-8.011-5.892-8.82-4.062-.81-8.011 1.829-8.82 5.892l-16.044 80.615-25.123-81.548-.062.019c-.741-2.209-2.492-4.045-4.888-4.787-3.958-1.225-8.158.99-9.382 4.947l-25.186 81.37-15.982-80.796c-.804-4.063-4.745-6.707-8.813-5.902-4.063.804-6.706 4.749-5.902 8.813l20.031 101.264c.071.358.168.711.29 1.055 1.391 3.915 5.104 6.533 9.253 6.533h.067c4.177-.029 7.887-2.705 9.231-6.659.022-.065.043-.13.063-.196l24.124-77.938 24.017 77.958c.033.101.066.202.102.301z"/></g></svg>