<?xml version="1.0" encoding="iso-8859-1"?>
<!-- Generator: Adobe Illustrator 19.0.0, SVG Export Plug-In . SVG Version: 6.00 Build 0)  -->
<svg version="1.1" id="Capa_1" xmlns="http://www.w3.org/2000/svg" xmlns:xlink="http://www.w3.org/1999/xlink" x="0px" y="0px"
	 viewBox="0 0 511.999 511.999" style="enable-background:new 0 0 511.999 511.999;" xml:space="preserve">
<g>
	<g>
		<path d="M258.14,214.709c-8.567-0.575-16.741,2.333-23.033,8.213c-6.408,5.985-10.084,14.504-10.084,23.368v34.74
			c0,5.974,4.86,10.834,10.834,10.834h40.538v0.001c5.867,0,10.641-4.772,10.641-10.641v-35.581
			C287.036,229.401,274.344,215.813,258.14,214.709z M272.034,276.864h-32.01V246.29c0-4.725,1.94-9.247,5.323-12.408
			c3.222-3.01,7.402-4.5,11.773-4.207c8.362,0.569,14.914,7.583,14.914,15.968V276.864z"/>
	</g>
</g>
<g>
	<g>
		<path d="M343.965,214.709c-8.568-0.583-16.741,2.332-23.032,8.213c-6.408,5.985-10.084,14.504-10.084,23.368v34.558
			c0,6.074,4.941,11.017,11.017,11.017h40.5c5.786,0,10.495-4.708,10.495-10.495v-35.727
			C372.861,229.401,360.169,215.813,343.965,214.709z M357.86,276.864h-32.01V246.29h0.001c0-4.725,1.94-9.247,5.322-12.408
			c3.223-3.01,7.404-4.499,11.773-4.207c8.362,0.569,14.914,7.583,14.914,15.968V276.864z"/>
	</g>
</g>
<g>
	<g>
		<path d="M190.76,222.922c-6.292-5.877-14.471-8.799-23.032-8.211h-0.001c-16.203,1.104-28.895,14.692-28.895,30.934v35.853
			c0,5.717,4.651,10.369,10.369,10.369h41.264v-0.001c5.723,0,10.38-4.656,10.38-10.38v-35.194
			C200.844,237.426,197.168,228.908,190.76,222.922z M185.843,276.863h-32.009v-31.22c0-8.385,6.55-15.399,14.914-15.968h-0.001
			c4.37-0.296,8.551,1.196,11.773,4.207c3.383,3.16,5.323,7.683,5.323,12.408V276.863z"/>
	</g>
</g>
<g>
	<g>
		<path d="M343.964,383.053L343.964,383.053c-18.402-1.261-33.115,13.719-33.115,31.58v34.558
			c0.001,6.074,4.943,11.017,11.018,11.017h40.499c5.786,0,10.495-4.707,10.495-10.494v-35.727
			C372.861,397.743,360.168,384.155,343.964,383.053z M357.861,445.207h-32.01v-30.574c0-4.725,1.939-9.247,5.322-12.407
			c10.124-9.458,26.688-2.088,26.688,11.761V445.207z"/>
	</g>
</g>
<g>
	<g>
		<path d="M237.519,421.363c-4.142,0-7.5,3.357-7.5,7.5v10.251c0,4.142,3.358,7.5,7.5,7.5c4.142,0,7.5-3.358,7.5-7.5v-10.251
			C245.019,424.72,241.661,421.363,237.519,421.363z"/>
	</g>
</g>
<g>
	<g>
		<path d="M188.349,421.363c-4.142,0-7.5,3.357-7.5,7.5v10.251c0,4.142,3.358,7.5,7.5,7.5c4.142,0,7.5-3.358,7.5-7.5v-10.251
			C195.849,424.72,192.491,421.363,188.349,421.363z"/>
	</g>
</g>
<g>
	<g>
		<path d="M448.649,469.994H418.7c0-18.618,0-109.197,0-124.398c20.841-5.597,20.624-34.995,0-40.541c0-17.408,0-115.86,0-130.635
			c9.737-2.615,16.059-11.88,15.554-20.772c0.003-0.462-0.025-0.804-0.066-1.182c-0.051-0.629-0.123-1.23-0.237-1.882
			c-1.652-9.567-9.654-16.718-19.262-17.371l-20.91-54.364c-3.017-7.844-9.277-12.718-16.337-12.718h-18.083
			c-4.143,0-7.5,3.357-7.5,7.5s3.357,7.5,7.5,7.5h18.08c0.307,0.033,1.478,0.861,2.339,3.102l18.815,48.919H111.72
			c16.283-40.602,18.702-51.752,21.152-52.021h11.245v32.177c0,4.143,3.358,7.5,7.5,7.5h63.227c4.142,0,7.5-3.357,7.5-7.5V81.132
			h102.01c4.143,0,7.5-3.357,7.5-7.5s-3.357-7.5-7.5-7.5h-102.01V41.247c10.519-2.869,18.003-13.929,14.762-25.673
			C234.656,6.402,226.325,0,216.833,0h-66.069c-11.642,0-21.001,9.499-21.001,21.002c0,9.256,6.025,17.118,14.355,19.907v25.221
			h-11.245c-7.06,0-13.32,4.873-16.337,12.718L95.55,133.406c-10.265,1.577-17.82,10.437-17.82,20.749
			c0,9.699,6.617,17.86,15.568,20.264c0,15.258,0,48.808,0,64.064c0,4.143,3.358,7.5,7.5,7.5c4.142,0,7.5-3.357,7.5-7.5V198.67
			h295.399v105.658H108.3v-30.844c0-4.143-3.358-7.5-7.5-7.5c-4.142,0-7.5,3.357-7.5,7.5v31.569
			c-20.794,5.592-20.696,34.984,0,40.541c0,15.181,0,105.713,0,124.398H63.35c-11.549,0-21.002,9.399-21.002,21.002
			c0,11.581,9.422,21.003,21.002,21.003h261.005c4.143,0,7.5-3.357,7.5-7.5s-3.357-7.5-7.5-7.5H63.35
			c-3.099,0-6.026-2.398-5.984-6.3c0.35-3.696,3.164-5.703,5.984-5.703c48.415,0,336.702,0,385.298,0
			c2.977,0,5.536,2.204,5.94,5.234c0.457,3.798-2.493,6.769-5.94,6.769h-89.291c-4.143,0-7.5,3.357-7.5,7.5
			c0,4.143,3.357,7.5,7.5,7.5h89.291c11.581,0,21.002-9.423,21.002-21.003C469.651,479.49,460.281,469.994,448.649,469.994z
			 M207.344,105.808h-48.226c0-7.822,0-56.087,0-63.803h48.226C207.344,49.725,207.344,97.989,207.344,105.808z M144.921,19.676
			c0.067-0.1,1.057-4.675,5.842-4.675h66.069c2.544,0,4.954,1.578,5.813,4.559c0.878,3.907-1.973,7.444-5.813,7.444
			c-16.568,0-51.539,0-66.069,0C146.957,27.005,144.048,23.46,144.921,19.676z M98.732,160.157c-3.817,0-6.736-3.562-5.831-7.37
			c0.067-0.1,1.073-4.633,5.831-4.633c10.642,0,297.65,0,314.533,0c2.892,0,5.768,2.037,5.999,6.157
			c-0.083,3.237-2.742,5.846-5.999,5.846h-2.066C397.335,160.157,112.745,160.157,98.732,160.157z M108.3,183.669v-8.512h295.399
			v8.512H108.3z M205.433,469.994h-51.599v-72.013h51.599V469.994z M272.034,469.994h-51.6v-72.013h51.6V469.994z M403.698,469.994
			H287.035v-74.92c0-6.669-5.425-12.095-12.095-12.095c-15.387,0-108.656,0-123.573,0c-6.912,0-12.536,5.624-12.536,12.536v74.479
			h-30.533V369.846h295.399V469.994z M403.699,354.846L403.699,354.846H108.3v-8.512h295.399V354.846z M413.266,331.333
			c-47.993,0-267.842,0-314.533,0c-3.373,0-6.23-2.827-5.971-6.45c0.48-6.483,7.743-5.477,8.039-5.553h310.4
			c0.729,0.187,7.659-1.109,8.065,6.157C419.182,328.725,416.523,331.333,413.266,331.333z"/>
	</g>
</g>
<g>
</g>
<g>
</g>
<g>
</g>
<g>
</g>
<g>
</g>
<g>
</g>
<g>
</g>
<g>
</g>
<g>
</g>
<g>
</g>
<g>
</g>
<g>
</g>
<g>
</g>
<g>
</g>
<g>
</g>
</svg>
